<svg width="26" height="32" viewBox="0 0 26 32" fill="none" xmlns="http://www.w3.org/2000/svg">
<path d="M21.5358 16.8217C21.5024 12.827 24.8117 10.8799 24.9658 10.7929C23.09 8.06286 20.1826 7.68815 19.1577 7.66139C16.7126 7.40716 14.3478 9.12011 13.1018 9.12011C11.8356 9.12011 9.91965 7.68815 7.84969 7.72834C5.19014 7.76845 2.70479 9.30746 1.3449 11.6895C-1.46872 16.554 0.628114 23.7002 3.32783 27.6346C4.67429 29.5617 6.24863 31.7096 8.31194 31.6359C10.3283 31.5556 11.0853 30.3512 13.5171 30.3512C15.9287 30.3512 16.6388 31.6359 18.7424 31.5891C20.9062 31.5556 22.2728 29.6553 23.5723 27.7149C25.1333 25.5068 25.7563 23.3322 25.7831 23.2251C25.7295 23.1916 21.5761 21.6059 21.5358 16.8217ZM17.5633 5.0719C18.6485 3.71361 19.3921 1.87354 19.1845 0C17.6169 0.0668761 15.6474 1.08394 14.5219 2.40884C13.5238 3.57978 12.6261 5.49343 12.8606 7.29339C14.6157 7.4205 16.4312 6.40344 17.5633 5.0719Z" fill="black"/>
</svg>
