<svg width="35" height="32" viewBox="0 0 35 32" fill="none" xmlns="http://www.w3.org/2000/svg">
<rect width="35" height="32" rx="10" fill="#FBBC05" fill-opacity="0.2"/>
<path opacity="0.5" d="M16.209 17.5664C16.209 18.6035 16.127 19.5322 15.9629 20.3525C15.8047 21.167 15.5527 21.8584 15.207 22.4268C14.8613 22.9951 14.4102 23.4287 13.8535 23.7275C13.2969 24.0264 12.623 24.1758 11.832 24.1758C10.8418 24.1758 10.0244 23.915 9.37988 23.3936C8.73535 22.8662 8.25781 22.1104 7.94727 21.126C7.63672 20.1357 7.48145 18.9492 7.48145 17.5664C7.48145 16.1836 7.62207 15 7.90332 14.0156C8.19043 13.0254 8.65332 12.2666 9.29199 11.7393C9.93066 11.2119 10.7773 10.9482 11.832 10.9482C12.8281 10.9482 13.6484 11.2119 14.293 11.7393C14.9434 12.2607 15.4238 13.0166 15.7344 14.0068C16.0508 14.9912 16.209 16.1777 16.209 17.5664ZM9.56445 17.5664C9.56445 18.6504 9.63477 19.5557 9.77539 20.2822C9.92188 21.0088 10.1621 21.5537 10.4961 21.917C10.8301 22.2744 11.2754 22.4531 11.832 22.4531C12.3887 22.4531 12.834 22.2744 13.168 21.917C13.502 21.5596 13.7422 21.0176 13.8887 20.291C14.041 19.5645 14.1172 18.6562 14.1172 17.5664C14.1172 16.4883 14.0439 15.5859 13.8975 14.8594C13.751 14.1328 13.5107 13.5879 13.1768 13.2246C12.8428 12.8555 12.3945 12.6709 11.832 12.6709C11.2695 12.6709 10.8213 12.8555 10.4873 13.2246C10.1592 13.5879 9.92188 14.1328 9.77539 14.8594C9.63477 15.5859 9.56445 16.4883 9.56445 17.5664ZM23.8818 24H21.8076V15.7295C21.8076 15.4541 21.8105 15.1787 21.8164 14.9033C21.8223 14.6279 21.8281 14.3584 21.834 14.0947C21.8457 13.8311 21.8604 13.5791 21.8779 13.3389C21.7549 13.4736 21.6025 13.6201 21.4209 13.7783C21.2451 13.9365 21.0576 14.1006 20.8584 14.2705L19.3818 15.4482L18.3447 14.1387L22.1592 11.1504H23.8818V24Z" fill="#323232"/>
</svg>
