<svg width="216" height="104" viewBox="0 0 216 104" fill="none" xmlns="http://www.w3.org/2000/svg">
<path d="M3.9 35.72H18.78C24.94 35.72 29.7 36.92 33.06 39.32C36.46 41.72 38.16 45.08 38.16 49.4C38.16 52.12 37.32 54.5 35.64 56.54C34 58.58 31.74 60.16 28.86 61.28C26.02 62.36 22.86 62.9 19.38 62.9H16.86V77H3.9V35.72ZM19.44 54.56C21.56 54.56 23.2 54.12 24.36 53.24C25.52 52.36 26.1 51.08 26.1 49.4C26.1 47.72 25.52 46.46 24.36 45.62C23.24 44.78 21.6 44.36 19.44 44.36H16.86V54.44C17.66 54.52 18.52 54.56 19.44 54.56ZM56.9775 77.48C53.6575 77.48 50.6975 76.82 48.0975 75.5C45.5375 74.14 43.5375 72.3 42.0975 69.98C40.6575 67.62 39.9375 64.96 39.9375 62C39.9375 58.96 40.6775 56.26 42.1575 53.9C43.6375 51.54 45.6375 49.72 48.1575 48.44C50.6775 47.16 53.4775 46.52 56.5575 46.52C59.5175 46.52 62.0375 47.18 64.1175 48.5C66.2375 49.78 67.8175 51.54 68.8575 53.78C69.8975 55.98 70.4175 58.46 70.4175 61.22C70.4175 61.94 70.3775 62.46 70.2975 62.78L52.2975 65.12C52.7775 66.52 53.5575 67.54 54.6375 68.18C55.7175 68.78 57.1375 69.08 58.8975 69.08C61.6175 69.08 64.5575 68.38 67.7175 66.98L69.2175 75.02C65.4975 76.66 61.4175 77.48 56.9775 77.48ZM61.1175 57.56C60.4775 55.04 58.9575 53.78 56.5575 53.78C55.1175 53.78 53.9775 54.32 53.1375 55.4C52.2975 56.48 51.8575 57.88 51.8175 59.6L61.1175 57.56ZM87.9173 77.48C84.3973 77.48 81.6573 76.48 79.6973 74.48C77.7373 72.44 76.7573 69.64 76.7573 66.08V54.38H72.9173V46.94H77.6573L83.2373 35.6H89.2973V46.94H96.2573V54.38H89.2973V64.58C89.2973 65.58 89.6173 66.36 90.2573 66.92C90.8973 67.48 91.7973 67.76 92.9573 67.76C94.0373 67.76 95.0173 67.52 95.8973 67.04L96.3773 75.44C95.3773 76.04 94.0773 76.54 92.4773 76.94C90.9173 77.3 89.3973 77.48 87.9173 77.48Z" fill="#0D0C22"/>
<path d="M111.203 68.3L125.303 44.48H111.743V35.72H138.743V44.48L124.943 68.24H139.343V77H111.203V68.3ZM159.458 77.48C156.138 77.48 153.178 76.82 150.578 75.5C148.018 74.14 146.018 72.3 144.578 69.98C143.138 67.62 142.418 64.96 142.418 62C142.418 58.96 143.158 56.26 144.638 53.9C146.118 51.54 148.118 49.72 150.638 48.44C153.158 47.16 155.958 46.52 159.038 46.52C161.998 46.52 164.518 47.18 166.598 48.5C168.718 49.78 170.298 51.54 171.338 53.78C172.378 55.98 172.898 58.46 172.898 61.22C172.898 61.94 172.858 62.46 172.778 62.78L154.778 65.12C155.258 66.52 156.038 67.54 157.118 68.18C158.198 68.78 159.618 69.08 161.378 69.08C164.098 69.08 167.038 68.38 170.198 66.98L171.698 75.02C167.978 76.66 163.898 77.48 159.458 77.48ZM163.598 57.56C162.958 55.04 161.438 53.78 159.038 53.78C157.598 53.78 156.458 54.32 155.618 55.4C154.778 56.48 154.338 57.88 154.298 59.6L163.598 57.56ZM177.258 47.36H189.318V53.48C191.638 48.84 195.318 46.52 200.358 46.52C204.198 46.52 207.198 47.9 209.358 50.66C211.558 53.38 212.658 57.16 212.658 62V77H200.058V60.74C200.058 59.02 199.678 57.7 198.918 56.78C198.198 55.86 197.178 55.4 195.858 55.4C194.898 55.4 193.958 55.72 193.038 56.36C192.118 56.96 191.358 57.84 190.758 59C190.198 60.16 189.918 61.48 189.918 62.96V77H177.258V47.36Z" fill="#FBBC05"/>
</svg>
