<svg width="187" height="46" viewBox="0 0 187 46" fill="none" xmlns="http://www.w3.org/2000/svg">
<g clip-path="url(#clip0_100_196)">
<path d="M3.51867 9.224H16.4147C21.7533 9.224 25.8787 10.264 28.7907 12.344C31.7373 14.424 33.2107 17.336 33.2107 21.08C33.2107 23.4373 32.4827 25.5 31.0267 27.268C29.6053 29.036 27.6467 30.4053 25.1507 31.376C22.6893 32.312 19.9507 32.78 16.9347 32.78H14.7507V45H3.51867V9.224ZM16.9867 25.552C18.824 25.552 20.2453 25.1707 21.2507 24.408C22.256 23.6453 22.7587 22.536 22.7587 21.08C22.7587 19.624 22.256 18.532 21.2507 17.804C20.28 17.076 18.8587 16.712 16.9867 16.712H14.7507V25.448C15.444 25.5173 16.1893 25.552 16.9867 25.552ZM49.5192 45.416C46.6418 45.416 44.0765 44.844 41.8232 43.7C39.6045 42.5213 37.8712 40.9267 36.6232 38.916C35.3752 36.8707 34.7512 34.5653 34.7512 32C34.7512 29.3653 35.3925 27.0253 36.6752 24.98C37.9578 22.9347 39.6912 21.3573 41.8752 20.248C44.0592 19.1387 46.4858 18.584 49.1552 18.584C51.7205 18.584 53.9045 19.156 55.7072 20.3C57.5445 21.4093 58.9138 22.9347 59.8152 24.876C60.7165 26.7827 61.1672 28.932 61.1672 31.324C61.1672 31.948 61.1325 32.3987 61.0632 32.676L45.4632 34.704C45.8792 35.9173 46.5552 36.8013 47.4912 37.356C48.4272 37.876 49.6578 38.136 51.1832 38.136C53.5405 38.136 56.0885 37.5293 58.8272 36.316L60.1272 43.284C56.9032 44.7053 53.3672 45.416 49.5192 45.416ZM53.1072 28.152C52.5525 25.968 51.2352 24.876 49.1552 24.876C47.9072 24.876 46.9192 25.344 46.1912 26.28C45.4632 27.216 45.0818 28.4293 45.0472 29.92L53.1072 28.152ZM76.3337 45.416C73.283 45.416 70.9084 44.5493 69.2097 42.816C67.511 41.048 66.6617 38.6213 66.6617 35.536V25.396H63.3337V18.948H67.4417L72.2777 9.12H77.5297V18.948H83.5617V25.396H77.5297V34.236C77.5297 35.1027 77.807 35.7787 78.3617 36.264C78.9164 36.7493 79.6964 36.992 80.7017 36.992C81.6377 36.992 82.487 36.784 83.2497 36.368L83.6657 43.648C82.799 44.168 81.6724 44.6013 80.2857 44.948C78.9337 45.26 77.6164 45.416 76.3337 45.416Z" fill="#0D0C22"/>
<path d="M96.5146 37.46L108.735 16.816H96.9826V9.224H120.383V16.816L108.423 37.408H120.903V45H96.5146V37.46ZM138.336 45.416C135.458 45.416 132.893 44.844 130.64 43.7C128.421 42.5213 126.688 40.9267 125.44 38.916C124.192 36.8707 123.568 34.5653 123.568 32C123.568 29.3653 124.209 27.0253 125.492 24.98C126.774 22.9347 128.508 21.3573 130.692 20.248C132.876 19.1387 135.302 18.584 137.972 18.584C140.537 18.584 142.721 19.156 144.524 20.3C146.361 21.4093 147.73 22.9347 148.632 24.876C149.533 26.7827 149.984 28.932 149.984 31.324C149.984 31.948 149.949 32.3987 149.88 32.676L134.28 34.704C134.696 35.9173 135.372 36.8013 136.308 37.356C137.244 37.876 138.474 38.136 140 38.136C142.357 38.136 144.905 37.5293 147.644 36.316L148.944 43.284C145.72 44.7053 142.184 45.416 138.336 45.416ZM141.924 28.152C141.369 25.968 140.052 24.876 137.972 24.876C136.724 24.876 135.736 25.344 135.008 26.28C134.28 27.216 133.898 28.4293 133.864 29.92L141.924 28.152ZM153.762 19.312H164.214V24.616C166.225 20.5947 169.414 18.584 173.782 18.584C177.11 18.584 179.71 19.78 181.582 22.172C183.489 24.5293 184.442 27.8053 184.442 32V45H173.522V30.908C173.522 29.4173 173.193 28.2733 172.534 27.476C171.91 26.6787 171.026 26.28 169.882 26.28C169.05 26.28 168.235 26.5573 167.438 27.112C166.641 27.632 165.982 28.3947 165.462 29.4C164.977 30.4053 164.734 31.5493 164.734 32.832V45H153.762V19.312Z" fill="#FBBC05"/>
</g>
<defs>
<clipPath id="clip0_100_196">
<rect width="187" height="46" fill="white"/>
</clipPath>
</defs>
</svg>
