<svg width="35" height="32" viewBox="0 0 35 32" fill="none" xmlns="http://www.w3.org/2000/svg">
<rect width="35" height="32" rx="10" fill="#FBBC05" fill-opacity="0.2"/>
<path opacity="0.5" d="M16.209 17.5664C16.209 18.6035 16.127 19.5322 15.9629 20.3525C15.8047 21.167 15.5527 21.8584 15.207 22.4268C14.8613 22.9951 14.4102 23.4287 13.8535 23.7275C13.2969 24.0264 12.623 24.1758 11.832 24.1758C10.8418 24.1758 10.0244 23.915 9.37988 23.3936C8.73535 22.8662 8.25781 22.1104 7.94727 21.126C7.63672 20.1357 7.48145 18.9492 7.48145 17.5664C7.48145 16.1836 7.62207 15 7.90332 14.0156C8.19043 13.0254 8.65332 12.2666 9.29199 11.7393C9.93066 11.2119 10.7773 10.9482 11.832 10.9482C12.8281 10.9482 13.6484 11.2119 14.293 11.7393C14.9434 12.2607 15.4238 13.0166 15.7344 14.0068C16.0508 14.9912 16.209 16.1777 16.209 17.5664ZM9.56445 17.5664C9.56445 18.6504 9.63477 19.5557 9.77539 20.2822C9.92188 21.0088 10.1621 21.5537 10.4961 21.917C10.8301 22.2744 11.2754 22.4531 11.832 22.4531C12.3887 22.4531 12.834 22.2744 13.168 21.917C13.502 21.5596 13.7422 21.0176 13.8887 20.291C14.041 19.5645 14.1172 18.6562 14.1172 17.5664C14.1172 16.4883 14.0439 15.5859 13.8975 14.8594C13.751 14.1328 13.5107 13.5879 13.1768 13.2246C12.8428 12.8555 12.3945 12.6709 11.832 12.6709C11.2695 12.6709 10.8213 12.8555 10.4873 13.2246C10.1592 13.5879 9.92188 14.1328 9.77539 14.8594C9.63477 15.5859 9.56445 16.4883 9.56445 17.5664ZM26.5098 24H17.8086V22.4443L21.1396 19.0693C21.7842 18.4131 22.3145 17.8477 22.7305 17.373C23.1465 16.8926 23.4541 16.4385 23.6533 16.0107C23.8584 15.583 23.9609 15.1172 23.9609 14.6133C23.9609 13.9922 23.7822 13.5234 23.4248 13.207C23.0674 12.8848 22.5957 12.7236 22.0098 12.7236C21.4531 12.7236 20.9375 12.835 20.4629 13.0576C19.9941 13.2744 19.5078 13.585 19.0039 13.9893L17.8701 12.627C18.2275 12.3223 18.6084 12.0439 19.0127 11.792C19.4229 11.54 19.8799 11.3408 20.3838 11.1943C20.8877 11.042 21.4619 10.9658 22.1064 10.9658C22.9209 10.9658 23.624 11.1123 24.2158 11.4053C24.8076 11.6924 25.2617 12.0938 25.5781 12.6094C25.9004 13.125 26.0615 13.7256 26.0615 14.4111C26.0615 15.1025 25.9238 15.7412 25.6484 16.3271C25.373 16.9131 24.9805 17.4932 24.4707 18.0674C23.9609 18.6357 23.3545 19.2539 22.6514 19.9219L20.4277 22.0928V22.1895H26.5098V24Z" fill="#323232"/>
</svg>
