<svg width="35" height="32" viewBox="0 0 35 32" fill="none" xmlns="http://www.w3.org/2000/svg">
<rect width="35" height="32" rx="10" fill="#FBBC05" fill-opacity="0.2"/>
<path opacity="0.5" d="M16.209 17.5664C16.209 18.6035 16.127 19.5322 15.9629 20.3525C15.8047 21.167 15.5527 21.8584 15.207 22.4268C14.8613 22.9951 14.4102 23.4287 13.8535 23.7275C13.2969 24.0264 12.623 24.1758 11.832 24.1758C10.8418 24.1758 10.0244 23.915 9.37988 23.3936C8.73535 22.8662 8.25781 22.1104 7.94727 21.126C7.63672 20.1357 7.48145 18.9492 7.48145 17.5664C7.48145 16.1836 7.62207 15 7.90332 14.0156C8.19043 13.0254 8.65332 12.2666 9.29199 11.7393C9.93066 11.2119 10.7773 10.9482 11.832 10.9482C12.8281 10.9482 13.6484 11.2119 14.293 11.7393C14.9434 12.2607 15.4238 13.0166 15.7344 14.0068C16.0508 14.9912 16.209 16.1777 16.209 17.5664ZM9.56445 17.5664C9.56445 18.6504 9.63477 19.5557 9.77539 20.2822C9.92188 21.0088 10.1621 21.5537 10.4961 21.917C10.8301 22.2744 11.2754 22.4531 11.832 22.4531C12.3887 22.4531 12.834 22.2744 13.168 21.917C13.502 21.5596 13.7422 21.0176 13.8887 20.291C14.041 19.5645 14.1172 18.6562 14.1172 17.5664C14.1172 16.4883 14.0439 15.5859 13.8975 14.8594C13.751 14.1328 13.5107 13.5879 13.1768 13.2246C12.8428 12.8555 12.3945 12.6709 11.832 12.6709C11.2695 12.6709 10.8213 12.8555 10.4873 13.2246C10.1592 13.5879 9.92188 14.1328 9.77539 14.8594C9.63477 15.5859 9.56445 16.4883 9.56445 17.5664ZM26.0176 14.0859C26.0176 14.666 25.9004 15.1699 25.666 15.5977C25.4316 16.0254 25.1094 16.377 24.6992 16.6523C24.2949 16.9219 23.8262 17.1152 23.293 17.2324V17.2939C24.3184 17.4229 25.0918 17.7451 25.6133 18.2607C26.1406 18.7764 26.4043 19.459 26.4043 20.3086C26.4043 21.0527 26.2256 21.7178 25.8682 22.3037C25.5107 22.8838 24.9629 23.3408 24.2246 23.6748C23.4863 24.0088 22.5371 24.1758 21.377 24.1758C20.6797 24.1758 20.0322 24.1201 19.4346 24.0088C18.8428 23.8975 18.2803 23.7188 17.7471 23.4727V21.6357C18.292 21.9053 18.8721 22.1133 19.4873 22.2598C20.1025 22.4062 20.6855 22.4795 21.2363 22.4795C22.3086 22.4795 23.0732 22.2803 23.5303 21.8818C23.9873 21.4775 24.2158 20.9209 24.2158 20.2119C24.2158 19.7549 24.0957 19.3799 23.8555 19.0869C23.6211 18.7939 23.2549 18.5742 22.7568 18.4277C22.2646 18.2812 21.6289 18.208 20.8496 18.208H19.7158V16.5469H20.8584C21.6025 16.5469 22.2002 16.459 22.6514 16.2832C23.1025 16.1016 23.4277 15.8525 23.627 15.5361C23.832 15.2197 23.9346 14.8506 23.9346 14.4287C23.9346 13.8779 23.7559 13.4502 23.3984 13.1455C23.041 12.835 22.5107 12.6797 21.8076 12.6797C21.374 12.6797 20.9785 12.7295 20.6211 12.8291C20.2695 12.9287 19.9443 13.0547 19.6455 13.207C19.3467 13.3594 19.0625 13.5234 18.793 13.6992L17.7998 12.2666C18.2861 11.9033 18.8662 11.5957 19.54 11.3438C20.2139 11.0918 20.999 10.9658 21.8955 10.9658C23.2139 10.9658 24.2305 11.25 24.9453 11.8184C25.6602 12.3809 26.0176 13.1367 26.0176 14.0859Z" fill="#323232"/>
</svg>
