<svg width="12" height="24" viewBox="0 0 12 24" fill="none" xmlns="http://www.w3.org/2000/svg">
<path d="M0.999847 23.9999C0.868241 24.0007 0.737779 23.9754 0.615941 23.9257C0.494104 23.8759 0.383287 23.8026 0.289847 23.7099C0.196119 23.6169 0.121725 23.5063 0.0709562 23.3845C0.0201876 23.2626 -0.00595093 23.1319 -0.00595093 22.9999C-0.00595093 22.8679 0.0201876 22.7372 0.0709562 22.6153C0.121725 22.4935 0.196119 22.3829 0.289847 22.2899L8.45985 14.1199C9.02165 13.5574 9.33721 12.7949 9.33721 11.9999C9.33721 11.2049 9.02165 10.4424 8.45985 9.87993L0.289847 1.70994C0.101544 1.52164 -0.00424433 1.26624 -0.00424433 0.99994C-0.00424433 0.733639 0.101544 0.478244 0.289847 0.289941C0.478151 0.101637 0.733546 -0.00415039 0.999847 -0.00415039C1.26615 -0.00415039 1.52154 0.101637 1.70985 0.289941L9.87985 8.45993C10.3455 8.92439 10.7149 9.47614 10.967 10.0836C11.219 10.691 11.3488 11.3423 11.3488 11.9999C11.3488 12.6576 11.219 13.3088 10.967 13.9163C10.7149 14.5237 10.3455 15.0755 9.87985 15.5399L1.70985 23.7099C1.61641 23.8026 1.50559 23.8759 1.38375 23.9257C1.26192 23.9754 1.13145 24.0007 0.999847 23.9999Z" fill="white"/>
</svg>
